<svg width="421" height="114" viewBox="0 0 421 114" fill="none" xmlns="http://www.w3.org/2000/svg">
<g clip-path="url(#clip0_106_303)">
<rect width="421" height="114" rx="30" fill="#14141B"/>
<mask id="mask0_106_303" style="mask-type:alpha" maskUnits="userSpaceOnUse" x="47" y="0" width="374" height="114">
<rect x="47" width="374" height="114" rx="30" fill="#14141B"/>
</mask>
<g mask="url(#mask0_106_303)">
<path opacity="0.1" d="M534.802 -151.452L389.662 -186L234.001 330.081L379.14 364.629L534.802 -151.452Z" fill="#009FFF"/>
<path opacity="0.1" d="M404.409 -182.49L389.661 -186L234 330.081L248.747 333.591L404.409 -182.49Z" fill="#009FFF"/>
</g>
<rect x="26" y="17" width="80" height="80" rx="15" fill="#2C2C3A"/>
<path d="M52.7293 72.8958L48.646 68.8125L57.4689 59.9166H36.8335V54.0833H57.4689L48.646 45.1875L52.7293 41.1041L68.6252 57L52.7293 72.8958Z" fill="white"/>
<rect x="69" y="42" width="26" height="6" fill="white"/>
<rect x="69" y="66" width="26" height="6" fill="white"/>
<rect x="77" y="54" width="18" height="6" fill="white"/>
<path d="M367.454 72.5714L364.543 69.6606L384.503 49.7011H366.622V45.5428H391.572V70.4923H387.413V52.6119L367.454 72.5714Z" fill="#E3E3E3"/>
<path d="M128.92 65H121.999L132.544 34.4545H140.866L151.396 65H144.476L136.825 41.4347H136.586L128.92 65ZM128.487 52.9936H144.834V58.0348H128.487V52.9936ZM155.073 65V34.4545H161.426V45.9389H161.62C161.899 45.3224 162.301 44.696 162.828 44.0597C163.365 43.4134 164.061 42.8764 164.917 42.4489C165.782 42.0114 166.855 41.7926 168.138 41.7926C169.809 41.7926 171.35 42.2301 172.762 43.1051C174.174 43.9702 175.302 45.2777 176.147 47.0277C176.993 48.7678 177.415 50.9503 177.415 53.5753C177.415 56.1307 177.002 58.2884 176.177 60.0483C175.362 61.7983 174.248 63.1257 172.836 64.0305C171.434 64.9254 169.863 65.3729 168.123 65.3729C166.89 65.3729 165.841 65.169 164.976 64.7614C164.121 64.3537 163.42 63.8416 162.873 63.2251C162.326 62.5987 161.909 61.9673 161.62 61.331H161.337V65H155.073ZM161.292 53.5455C161.292 54.9077 161.481 56.0959 161.859 57.1101C162.237 58.1243 162.784 58.9148 163.5 59.4815C164.216 60.0384 165.086 60.3168 166.11 60.3168C167.144 60.3168 168.019 60.0334 168.735 59.4666C169.451 58.8899 169.993 58.0945 170.36 57.0803C170.738 56.0561 170.927 54.8778 170.927 53.5455C170.927 52.223 170.743 51.0597 170.375 50.0554C170.007 49.0511 169.466 48.2656 168.75 47.6989C168.034 47.1321 167.154 46.8487 166.11 46.8487C165.076 46.8487 164.201 47.1222 163.485 47.669C162.779 48.2159 162.237 48.9915 161.859 49.9957C161.481 51 161.292 52.1832 161.292 53.5455ZM192.006 65.4474C189.689 65.4474 187.685 64.9553 185.995 63.9709C184.314 62.9766 183.017 61.5945 182.102 59.8246C181.187 58.0447 180.73 55.9815 180.73 53.6349C180.73 51.2685 181.187 49.2003 182.102 47.4304C183.017 45.6506 184.314 44.2685 185.995 43.2841C187.685 42.2898 189.689 41.7926 192.006 41.7926C194.322 41.7926 196.321 42.2898 198.001 43.2841C199.692 44.2685 200.994 45.6506 201.909 47.4304C202.824 49.2003 203.281 51.2685 203.281 53.6349C203.281 55.9815 202.824 58.0447 201.909 59.8246C200.994 61.5945 199.692 62.9766 198.001 63.9709C196.321 64.9553 194.322 65.4474 192.006 65.4474ZM192.035 60.5256C193.089 60.5256 193.969 60.2273 194.675 59.6307C195.381 59.0241 195.913 58.1989 196.271 57.1548C196.639 56.1108 196.823 54.9226 196.823 53.5902C196.823 52.2578 196.639 51.0696 196.271 50.0256C195.913 48.9815 195.381 48.1562 194.675 47.5497C193.969 46.9432 193.089 46.6399 192.035 46.6399C190.971 46.6399 190.077 46.9432 189.351 47.5497C188.635 48.1562 188.093 48.9815 187.725 50.0256C187.367 51.0696 187.188 52.2578 187.188 53.5902C187.188 54.9226 187.367 56.1108 187.725 57.1548C188.093 58.1989 188.635 59.0241 189.351 59.6307C190.077 60.2273 190.971 60.5256 192.035 60.5256ZM222.104 55.2457V42.0909H228.457V65H222.357V60.8388H222.118C221.601 62.1811 220.741 63.2599 219.538 64.0753C218.345 64.8906 216.888 65.2983 215.168 65.2983C213.637 65.2983 212.29 64.9503 211.126 64.2543C209.963 63.5582 209.053 62.5689 208.397 61.2862C207.751 60.0036 207.422 58.4673 207.412 56.6776V42.0909H213.766V55.544C213.776 56.8963 214.139 57.9652 214.855 58.7507C215.571 59.5362 216.53 59.929 217.733 59.929C218.499 59.929 219.215 59.755 219.881 59.407C220.547 59.049 221.084 58.522 221.492 57.826C221.91 57.13 222.113 56.2699 222.104 55.2457ZM245.725 42.0909V46.8636H231.929V42.0909H245.725ZM235.061 36.6023H241.414V57.9602C241.414 58.5469 241.504 59.0043 241.683 59.3324C241.862 59.6506 242.11 59.8743 242.429 60.0036C242.757 60.1328 243.135 60.1974 243.562 60.1974C243.86 60.1974 244.159 60.1726 244.457 60.1229C244.755 60.0632 244.984 60.0185 245.143 59.9886L246.142 64.7166C245.824 64.8161 245.377 64.9304 244.8 65.0597C244.223 65.1989 243.522 65.2834 242.697 65.3132C241.166 65.3729 239.824 65.169 238.67 64.7017C237.527 64.2344 236.637 63.5085 236 62.5241C235.364 61.5398 235.051 60.2969 235.061 58.7955V36.6023Z" fill="white"/>
<path opacity="0.7" d="M125.061 75.4545V76.6477H121.298V75.4545H125.061ZM122.227 73.8864H123.77V80.0312C123.77 80.2386 123.801 80.3977 123.864 80.5085C123.929 80.6165 124.014 80.6903 124.119 80.7301C124.224 80.7699 124.341 80.7898 124.469 80.7898C124.565 80.7898 124.653 80.7827 124.733 80.7685C124.815 80.7543 124.878 80.7415 124.92 80.7301L125.18 81.9361C125.098 81.9645 124.98 81.9957 124.827 82.0298C124.676 82.0639 124.491 82.0838 124.273 82.0895C123.886 82.1009 123.538 82.0426 123.229 81.9148C122.919 81.7841 122.673 81.5824 122.491 81.3097C122.313 81.0369 122.224 80.696 122.227 80.2869V73.8864ZM128.034 78.1648V82H126.492V73.2727H128V76.5668H128.077C128.23 76.1974 128.468 75.9062 128.789 75.6932C129.113 75.4773 129.525 75.3693 130.025 75.3693C130.479 75.3693 130.875 75.4645 131.213 75.6548C131.551 75.8452 131.813 76.1236 131.998 76.4901C132.185 76.8565 132.279 77.304 132.279 77.8324V82H130.736V78.071C130.736 77.6307 130.623 77.2884 130.395 77.044C130.171 76.7969 129.855 76.6733 129.449 76.6733C129.176 76.6733 128.932 76.733 128.716 76.8523C128.503 76.9687 128.336 77.1378 128.213 77.3594C128.094 77.581 128.034 77.8494 128.034 78.1648ZM136.749 82.1278C136.093 82.1278 135.526 81.9915 135.049 81.7188C134.574 81.4432 134.209 81.054 133.953 80.5511C133.698 80.0455 133.57 79.4503 133.57 78.7656C133.57 78.0923 133.698 77.5014 133.953 76.9929C134.212 76.4815 134.573 76.0838 135.036 75.7997C135.499 75.5128 136.043 75.3693 136.668 75.3693C137.071 75.3693 137.452 75.4347 137.81 75.5653C138.171 75.6932 138.489 75.892 138.765 76.1619C139.043 76.4318 139.262 76.7756 139.421 77.1932C139.58 77.608 139.659 78.1023 139.659 78.6761V79.1491H134.294V78.1094H138.181C138.178 77.8139 138.114 77.5511 137.989 77.321C137.864 77.0881 137.689 76.9048 137.465 76.7713C137.243 76.6378 136.985 76.571 136.689 76.571C136.374 76.571 136.097 76.6477 135.858 76.8011C135.62 76.9517 135.434 77.1506 135.3 77.3977C135.169 77.642 135.103 77.9105 135.1 78.2031V79.1108C135.1 79.4915 135.169 79.8182 135.309 80.0909C135.448 80.3608 135.642 80.5682 135.892 80.7131C136.142 80.8551 136.435 80.9261 136.77 80.9261C136.995 80.9261 137.198 80.8949 137.38 80.8324C137.561 80.767 137.719 80.6719 137.853 80.5469C137.986 80.4219 138.087 80.267 138.155 80.0824L139.596 80.2443C139.505 80.625 139.331 80.9574 139.076 81.2415C138.823 81.5227 138.499 81.7415 138.104 81.8977C137.709 82.0511 137.257 82.1278 136.749 82.1278ZM151.808 77.6364C151.808 78.5767 151.631 79.3821 151.279 80.0526C150.93 80.7202 150.452 81.2315 149.847 81.5866C149.245 81.9418 148.562 82.1193 147.798 82.1193C147.033 82.1193 146.349 81.9418 145.744 81.5866C145.141 81.2287 144.664 80.7159 144.312 80.0483C143.962 79.3778 143.788 78.5739 143.788 77.6364C143.788 76.696 143.962 75.892 144.312 75.2244C144.664 74.554 145.141 74.0412 145.744 73.6861C146.349 73.331 147.033 73.1534 147.798 73.1534C148.562 73.1534 149.245 73.331 149.847 73.6861C150.452 74.0412 150.93 74.554 151.279 75.2244C151.631 75.892 151.808 76.696 151.808 77.6364ZM150.218 77.6364C150.218 76.9744 150.114 76.4162 149.907 75.9616C149.702 75.5043 149.418 75.1591 149.055 74.9261C148.691 74.6903 148.272 74.5724 147.798 74.5724C147.323 74.5724 146.904 74.6903 146.54 74.9261C146.177 75.1591 145.891 75.5043 145.684 75.9616C145.479 76.4162 145.377 76.9744 145.377 77.6364C145.377 78.2983 145.479 78.858 145.684 79.3153C145.891 79.7699 146.177 80.1151 146.54 80.3509C146.904 80.5838 147.323 80.7003 147.798 80.7003C148.272 80.7003 148.691 80.5838 149.055 80.3509C149.418 80.1151 149.702 79.7699 149.907 79.3153C150.114 78.858 150.218 78.2983 150.218 77.6364ZM153.302 82V73.2727H154.845V76.5369H154.909C154.988 76.3778 155.1 76.2088 155.245 76.0298C155.39 75.848 155.586 75.6932 155.833 75.5653C156.081 75.4347 156.396 75.3693 156.779 75.3693C157.285 75.3693 157.741 75.4986 158.147 75.7571C158.556 76.0128 158.88 76.392 159.119 76.8949C159.36 77.3949 159.481 78.0085 159.481 78.7358C159.481 79.4545 159.363 80.0653 159.127 80.5682C158.892 81.071 158.571 81.4545 158.164 81.7188C157.758 81.983 157.298 82.1151 156.784 82.1151C156.409 82.1151 156.098 82.0526 155.85 81.9276C155.603 81.8026 155.404 81.652 155.254 81.4759C155.106 81.2969 154.991 81.1278 154.909 80.9688H154.819V82H153.302ZM154.815 78.7273C154.815 79.1506 154.875 79.5213 154.994 79.8395C155.116 80.1577 155.291 80.4062 155.518 80.5852C155.748 80.7614 156.027 80.8494 156.353 80.8494C156.694 80.8494 156.98 80.7585 157.21 80.5767C157.44 80.392 157.613 80.1406 157.73 79.8224C157.849 79.5014 157.909 79.1364 157.909 78.7273C157.909 78.321 157.85 77.9602 157.734 77.6449C157.618 77.3295 157.444 77.0824 157.214 76.9034C156.984 76.7244 156.697 76.6349 156.353 76.6349C156.024 76.6349 155.744 76.7216 155.514 76.8949C155.284 77.0682 155.109 77.3111 154.99 77.6236C154.873 77.9361 154.815 78.304 154.815 78.7273ZM160.861 82V73.2727H162.403V76.5369H162.467C162.547 76.3778 162.659 76.2088 162.804 76.0298C162.949 75.848 163.145 75.6932 163.392 75.5653C163.639 75.4347 163.955 75.3693 164.338 75.3693C164.844 75.3693 165.3 75.4986 165.706 75.7571C166.115 76.0128 166.439 76.392 166.678 76.8949C166.919 77.3949 167.04 78.0085 167.04 78.7358C167.04 79.4545 166.922 80.0653 166.686 80.5682C166.45 81.071 166.129 81.4545 165.723 81.7188C165.317 81.983 164.857 82.1151 164.342 82.1151C163.967 82.1151 163.656 82.0526 163.409 81.9276C163.162 81.8026 162.963 81.652 162.812 81.4759C162.665 81.2969 162.55 81.1278 162.467 80.9688H162.378V82H160.861ZM162.374 78.7273C162.374 79.1506 162.433 79.5213 162.553 79.8395C162.675 80.1577 162.849 80.4062 163.077 80.5852C163.307 80.7614 163.585 80.8494 163.912 80.8494C164.253 80.8494 164.538 80.7585 164.768 80.5767C164.999 80.392 165.172 80.1406 165.288 79.8224C165.408 79.5014 165.467 79.1364 165.467 78.7273C165.467 78.321 165.409 77.9602 165.293 77.6449C165.176 77.3295 165.003 77.0824 164.773 76.9034C164.543 76.7244 164.256 76.6349 163.912 76.6349C163.582 76.6349 163.303 76.7216 163.072 76.8949C162.842 77.0682 162.668 77.3111 162.548 77.6236C162.432 77.9361 162.374 78.304 162.374 78.7273ZM169.087 84.4545C168.877 84.4545 168.683 84.4375 168.504 84.4034C168.327 84.3722 168.187 84.3352 168.082 84.2926L168.44 83.0909C168.664 83.1563 168.864 83.1875 169.04 83.1847C169.217 83.1818 169.371 83.1264 169.505 83.0185C169.641 82.9134 169.756 82.7372 169.85 82.4901L169.982 82.1364L167.609 75.4545H169.245L170.754 80.3977H170.822L172.335 75.4545H173.975L171.354 82.7926C171.232 83.1392 171.07 83.4361 170.869 83.6832C170.667 83.9332 170.42 84.1236 170.127 84.2543C169.837 84.3878 169.491 84.4545 169.087 84.4545ZM179.924 82L177.461 73.2727H179.161L180.734 79.6861H180.815L182.494 73.2727H184.04L185.724 79.6903H185.8L187.373 73.2727H189.073L186.61 82H185.05L183.303 75.8764H183.235L181.484 82H179.924ZM190.101 82V75.4545H191.644V82H190.101ZM190.877 74.5256C190.632 74.5256 190.422 74.4446 190.246 74.2827C190.07 74.1179 189.982 73.9205 189.982 73.6903C189.982 73.4574 190.07 73.2599 190.246 73.098C190.422 72.9332 190.632 72.8509 190.877 72.8509C191.124 72.8509 191.334 72.9332 191.507 73.098C191.684 73.2599 191.772 73.4574 191.772 73.6903C191.772 73.9205 191.684 74.1179 191.507 74.2827C191.334 74.4446 191.124 74.5256 190.877 74.5256ZM194.636 79.946L194.632 78.0838H194.879L197.232 75.4545H199.034L196.141 78.6761H195.821L194.636 79.946ZM193.23 82V73.2727H194.773V82H193.23ZM197.338 82L195.207 79.0213L196.247 77.9347L199.183 82H197.338ZM200.062 82V75.4545H201.605V82H200.062ZM200.838 74.5256C200.593 74.5256 200.383 74.4446 200.207 74.2827C200.031 74.1179 199.943 73.9205 199.943 73.6903C199.943 73.4574 200.031 73.2599 200.207 73.098C200.383 72.9332 200.593 72.8509 200.838 72.8509C201.085 72.8509 201.295 72.9332 201.468 73.098C201.645 73.2599 201.733 73.4574 201.733 73.6903C201.733 73.9205 201.645 74.1179 201.468 74.2827C201.295 74.4446 201.085 74.5256 200.838 74.5256Z" fill="white"/>
</g>
<defs>
<clipPath id="clip0_106_303">
<rect width="421" height="114" fill="white"/>
</clipPath>
</defs>
</svg>
