<svg width="508" height="114" viewBox="0 0 508 114" fill="none" xmlns="http://www.w3.org/2000/svg">
<g clip-path="url(#clip0_104_245)">
<rect width="508" height="114" rx="30" fill="#14141B"/>
<mask id="mask0_104_245" style="mask-type:alpha" maskUnits="userSpaceOnUse" x="134" y="0" width="374" height="114">
<rect x="134" width="374" height="114" rx="30" fill="#14141B"/>
</mask>
<g mask="url(#mask0_104_245)">
<path opacity="0.1" d="M672.962 -151.452L497.829 -186L310 330.081L485.133 364.629L672.962 -151.452Z" fill="#009FFF"/>
<path opacity="0.1" d="M515.624 -182.49L497.829 -186L310 330.081L327.795 333.591L515.624 -182.49Z" fill="#009FFF"/>
</g>
<rect x="26" y="17" width="80" height="80" rx="15" fill="#2C2C3A"/>
<path d="M42 63V57H63V63H42ZM42 51V45H75V51H42ZM42 39V33H75V39H42Z" fill="white"/>
<path d="M78.225 81H69V71.775L74.299 66.5L83.6084 75.6166L78.225 81Z" fill="white"/>
<path d="M85.5489 73.6761L76.3081 64.5L85.575 55.275C86.025 54.825 86.525 54.5 87.075 54.3C87.625 54.1 88.175 54 88.725 54C89.325 54 89.9 54.1125 90.45 54.3375C91 54.5625 91.5 54.9 91.95 55.35L94.725 58.125C95.125 58.575 95.4375 59.075 95.6625 59.625C95.8875 60.175 96 60.725 96 61.275C96 61.825 95.9 62.3875 95.7 62.9625C95.5 63.5375 95.175 64.05 94.725 64.5L85.5489 73.6761Z" fill="white"/>
<path d="M450.454 69.5714L447.543 66.6606L467.503 46.7011H449.622V42.5428H474.572V67.4923H470.413V49.6119L450.454 69.5714Z" fill="#E3E3E3"/>
<path d="M150.606 45.1484H144.073C143.954 44.3033 143.71 43.5526 143.342 42.8963C142.974 42.2301 142.502 41.6634 141.925 41.196C141.349 40.7287 140.683 40.3707 139.927 40.1222C139.181 39.8736 138.371 39.7493 137.496 39.7493C135.915 39.7493 134.538 40.142 133.364 40.9276C132.191 41.7031 131.281 42.8366 130.635 44.3281C129.989 45.8097 129.665 47.6094 129.665 49.7273C129.665 51.9048 129.989 53.7344 130.635 55.2159C131.291 56.6974 132.206 57.8161 133.379 58.5717C134.553 59.3274 135.91 59.7053 137.451 59.7053C138.316 59.7053 139.116 59.5909 139.852 59.3622C140.598 59.1335 141.259 58.8004 141.836 58.3629C142.413 57.9155 142.89 57.3736 143.268 56.7372C143.656 56.1009 143.924 55.375 144.073 54.5597L150.606 54.5895C150.437 55.9915 150.014 57.3438 149.338 58.6463C148.672 59.9389 147.772 61.0973 146.638 62.1214C145.515 63.1357 144.173 63.9411 142.612 64.5376C141.06 65.1243 139.305 65.4176 137.347 65.4176C134.622 65.4176 132.186 64.8011 130.038 63.5682C127.901 62.3352 126.21 60.5504 124.967 58.2138C123.734 55.8771 123.118 53.0483 123.118 49.7273C123.118 46.3963 123.744 43.5625 124.997 41.2259C126.25 38.8892 127.95 37.1094 130.098 35.8864C132.246 34.6534 134.662 34.0369 137.347 34.0369C139.116 34.0369 140.757 34.2855 142.268 34.7827C143.79 35.2798 145.137 36.0057 146.31 36.9602C147.484 37.9048 148.438 39.0632 149.174 40.4354C149.92 41.8075 150.397 43.3786 150.606 45.1484ZM165.468 65.4474C163.152 65.4474 161.148 64.9553 159.458 63.9709C157.777 62.9766 156.48 61.5945 155.565 59.8246C154.65 58.0447 154.193 55.9815 154.193 53.6349C154.193 51.2685 154.65 49.2003 155.565 47.4304C156.48 45.6506 157.777 44.2685 159.458 43.2841C161.148 42.2898 163.152 41.7926 165.468 41.7926C167.785 41.7926 169.784 42.2898 171.464 43.2841C173.154 44.2685 174.457 45.6506 175.372 47.4304C176.287 49.2003 176.744 51.2685 176.744 53.6349C176.744 55.9815 176.287 58.0447 175.372 59.8246C174.457 61.5945 173.154 62.9766 171.464 63.9709C169.784 64.9553 167.785 65.4474 165.468 65.4474ZM165.498 60.5256C166.552 60.5256 167.432 60.2273 168.138 59.6307C168.844 59.0241 169.376 58.1989 169.734 57.1548C170.102 56.1108 170.286 54.9226 170.286 53.5902C170.286 52.2578 170.102 51.0696 169.734 50.0256C169.376 48.9815 168.844 48.1562 168.138 47.5497C167.432 46.9432 166.552 46.6399 165.498 46.6399C164.434 46.6399 163.539 46.9432 162.814 47.5497C162.098 48.1562 161.556 48.9815 161.188 50.0256C160.83 51.0696 160.651 52.2578 160.651 53.5902C160.651 54.9226 160.83 56.1108 161.188 57.1548C161.556 58.1989 162.098 59.0241 162.814 59.6307C163.539 60.2273 164.434 60.5256 165.498 60.5256ZM187.229 51.7557V65H180.875V42.0909H186.931V46.1328H187.199C187.706 44.8004 188.556 43.7464 189.75 42.9709C190.943 42.1854 192.39 41.7926 194.09 41.7926C195.681 41.7926 197.068 42.1406 198.251 42.8366C199.434 43.5327 200.354 44.527 201.01 45.8196C201.667 47.1023 201.995 48.6335 201.995 50.4134V65H195.641V51.5469C195.651 50.1449 195.293 49.0511 194.567 48.2656C193.841 47.4702 192.842 47.0724 191.569 47.0724C190.714 47.0724 189.958 47.2564 189.302 47.6243C188.656 47.9922 188.149 48.5291 187.781 49.2351C187.423 49.9311 187.239 50.7713 187.229 51.7557ZM219.188 42.0909V46.8636H205.392V42.0909H219.188ZM208.524 36.6023H214.877V57.9602C214.877 58.5469 214.967 59.0043 215.146 59.3324C215.325 59.6506 215.573 59.8743 215.892 60.0036C216.22 60.1328 216.597 60.1974 217.025 60.1974C217.323 60.1974 217.622 60.1726 217.92 60.1229C218.218 60.0632 218.447 60.0185 218.606 59.9886L219.605 64.7166C219.287 64.8161 218.84 64.9304 218.263 65.0597C217.686 65.1989 216.985 65.2834 216.16 65.3132C214.629 65.3729 213.286 65.169 212.133 64.7017C210.99 64.2344 210.1 63.5085 209.463 62.5241C208.827 61.5398 208.514 60.2969 208.524 58.7955V36.6023ZM223.327 65V42.0909H229.486V46.0881H229.725C230.143 44.6662 230.844 43.5923 231.828 42.8665C232.812 42.1307 233.946 41.7628 235.229 41.7628C235.547 41.7628 235.89 41.7827 236.258 41.8224C236.626 41.8622 236.949 41.9169 237.227 41.9865V47.6243C236.929 47.5348 236.516 47.4553 235.989 47.3857C235.462 47.3161 234.98 47.2812 234.542 47.2812C233.608 47.2812 232.773 47.4851 232.037 47.8928C231.311 48.2905 230.734 48.8473 230.307 49.5632C229.889 50.2791 229.68 51.1044 229.68 52.0391V65H223.327ZM240.512 65V42.0909H246.866V65H240.512ZM243.704 39.1378C242.759 39.1378 241.949 38.8246 241.273 38.1982C240.607 37.5618 240.273 36.8011 240.273 35.9162C240.273 35.0412 240.607 34.2905 241.273 33.6641C241.949 33.0277 242.759 32.7095 243.704 32.7095C244.648 32.7095 245.454 33.0277 246.12 33.6641C246.796 34.2905 247.134 35.0412 247.134 35.9162C247.134 36.8011 246.796 37.5618 246.12 38.1982C245.454 38.8246 244.648 39.1378 243.704 39.1378ZM252.075 65V34.4545H258.428V45.9389H258.622C258.901 45.3224 259.303 44.696 259.83 44.0597C260.367 43.4134 261.063 42.8764 261.919 42.4489C262.784 42.0114 263.857 41.7926 265.14 41.7926C266.811 41.7926 268.352 42.2301 269.764 43.1051C271.176 43.9702 272.304 45.2777 273.149 47.0277C273.994 48.7678 274.417 50.9503 274.417 53.5753C274.417 56.1307 274.004 58.2884 273.179 60.0483C272.364 61.7983 271.25 63.1257 269.838 64.0305C268.436 64.9254 266.865 65.3729 265.125 65.3729C263.892 65.3729 262.843 65.169 261.978 64.7614C261.123 64.3537 260.422 63.8416 259.875 63.2251C259.328 62.5987 258.911 61.9673 258.622 61.331H258.339V65H252.075ZM258.294 53.5455C258.294 54.9077 258.483 56.0959 258.861 57.1101C259.239 58.1243 259.786 58.9148 260.502 59.4815C261.218 60.0384 262.088 60.3168 263.112 60.3168C264.146 60.3168 265.021 60.0334 265.737 59.4666C266.453 58.8899 266.994 58.0945 267.362 57.0803C267.74 56.0561 267.929 54.8778 267.929 53.5455C267.929 52.223 267.745 51.0597 267.377 50.0554C267.009 49.0511 266.468 48.2656 265.752 47.6989C265.036 47.1321 264.156 46.8487 263.112 46.8487C262.078 46.8487 261.203 47.1222 260.487 47.669C259.781 48.2159 259.239 48.9915 258.861 49.9957C258.483 51 258.294 52.1832 258.294 53.5455ZM293.348 55.2457V42.0909H299.701V65H293.601V60.8388H293.363C292.846 62.1811 291.985 63.2599 290.782 64.0753C289.589 64.8906 288.132 65.2983 286.412 65.2983C284.881 65.2983 283.534 64.9503 282.37 64.2543C281.207 63.5582 280.297 62.5689 279.641 61.2862C278.995 60.0036 278.667 58.4673 278.657 56.6776V42.0909H285.01V55.544C285.02 56.8963 285.383 57.9652 286.099 58.7507C286.815 59.5362 287.775 59.929 288.978 59.929C289.743 59.929 290.459 59.755 291.125 59.407C291.792 59.049 292.328 58.522 292.736 57.826C293.154 57.13 293.358 56.2699 293.348 55.2457ZM316.969 42.0909V46.8636H303.173V42.0909H316.969ZM306.305 36.6023H312.659V57.9602C312.659 58.5469 312.748 59.0043 312.927 59.3324C313.106 59.6506 313.355 59.8743 313.673 60.0036C314.001 60.1328 314.379 60.1974 314.806 60.1974C315.105 60.1974 315.403 60.1726 315.701 60.1229C315.999 60.0632 316.228 60.0185 316.387 59.9886L317.387 64.7166C317.068 64.8161 316.621 64.9304 316.044 65.0597C315.468 65.1989 314.767 65.2834 313.941 65.3132C312.41 65.3729 311.068 65.169 309.914 64.7017C308.771 64.2344 307.881 63.5085 307.244 62.5241C306.608 61.5398 306.295 60.2969 306.305 58.7955V36.6023ZM321.108 65V42.0909H327.461V65H321.108ZM324.3 39.1378C323.355 39.1378 322.545 38.8246 321.868 38.1982C321.202 37.5618 320.869 36.8011 320.869 35.9162C320.869 35.0412 321.202 34.2905 321.868 33.6641C322.545 33.0277 323.355 32.7095 324.3 32.7095C325.244 32.7095 326.05 33.0277 326.716 33.6641C327.392 34.2905 327.73 35.0412 327.73 35.9162C327.73 36.8011 327.392 37.5618 326.716 38.1982C326.05 38.8246 325.244 39.1378 324.3 39.1378ZM338.905 51.7557V65H332.551V42.0909H338.607V46.1328H338.875C339.382 44.8004 340.232 43.7464 341.425 42.9709C342.619 42.1854 344.065 41.7926 345.766 41.7926C347.357 41.7926 348.744 42.1406 349.927 42.8366C351.11 43.5327 352.03 44.527 352.686 45.8196C353.342 47.1023 353.67 48.6335 353.67 50.4134V65H347.317V51.5469C347.327 50.1449 346.969 49.0511 346.243 48.2656C345.517 47.4702 344.518 47.0724 343.245 47.0724C342.39 47.0724 341.634 47.2564 340.978 47.6243C340.332 47.9922 339.825 48.5291 339.457 49.2351C339.099 49.9311 338.915 50.7713 338.905 51.7557ZM368.999 74.0682C366.941 74.0682 365.176 73.7848 363.704 73.218C362.243 72.6612 361.079 71.9006 360.214 70.9361C359.349 69.9716 358.787 68.8878 358.529 67.6847L364.405 66.8942C364.584 67.3516 364.868 67.7791 365.256 68.1768C365.643 68.5746 366.155 68.8928 366.792 69.1314C367.438 69.38 368.224 69.5043 369.148 69.5043C370.53 69.5043 371.669 69.1662 372.564 68.4901C373.469 67.8239 373.921 66.7053 373.921 65.1342V60.9432H373.653C373.374 61.5795 372.956 62.1811 372.4 62.7479C371.843 63.3146 371.127 63.777 370.252 64.1349C369.377 64.4929 368.333 64.6719 367.12 64.6719C365.4 64.6719 363.834 64.2741 362.422 63.4787C361.02 62.6733 359.901 61.4453 359.066 59.7947C358.241 58.1342 357.828 56.0362 357.828 53.5007C357.828 50.9055 358.251 48.7379 359.096 46.9979C359.941 45.2578 361.064 43.9553 362.466 43.0902C363.878 42.2251 365.425 41.7926 367.105 41.7926C368.388 41.7926 369.461 42.0114 370.327 42.4489C371.192 42.8764 371.888 43.4134 372.415 44.0597C372.952 44.696 373.364 45.3224 373.653 45.9389H373.891V42.0909H380.2V65.2237C380.2 67.1726 379.723 68.8033 378.768 70.1158C377.814 71.4283 376.491 72.4126 374.801 73.0689C373.121 73.7351 371.187 74.0682 368.999 74.0682ZM369.133 59.8991C370.157 59.8991 371.023 59.6456 371.729 59.1385C372.444 58.6214 372.991 57.8857 373.369 56.9311C373.757 55.9666 373.951 54.8132 373.951 53.4709C373.951 52.1286 373.762 50.9652 373.384 49.9808C373.006 48.9865 372.459 48.2159 371.743 47.669C371.028 47.1222 370.157 46.8487 369.133 46.8487C368.089 46.8487 367.209 47.1321 366.493 47.6989C365.778 48.2557 365.236 49.0312 364.868 50.0256C364.5 51.0199 364.316 52.1683 364.316 53.4709C364.316 54.7933 364.5 55.9368 364.868 56.9013C365.246 57.8558 365.787 58.5966 366.493 59.1236C367.209 59.6406 368.089 59.8991 369.133 59.8991Z" fill="white"/>
<path opacity="0.7" d="M125.061 75.4545V76.6477H121.298V75.4545H125.061ZM122.227 73.8864H123.77V80.0312C123.77 80.2386 123.801 80.3977 123.864 80.5085C123.929 80.6165 124.014 80.6903 124.119 80.7301C124.224 80.7699 124.341 80.7898 124.469 80.7898C124.565 80.7898 124.653 80.7827 124.733 80.7685C124.815 80.7543 124.878 80.7415 124.92 80.7301L125.18 81.9361C125.098 81.9645 124.98 81.9957 124.827 82.0298C124.676 82.0639 124.491 82.0838 124.273 82.0895C123.886 82.1009 123.538 82.0426 123.229 81.9148C122.919 81.7841 122.673 81.5824 122.491 81.3097C122.313 81.0369 122.224 80.696 122.227 80.2869V73.8864ZM129.136 82.1278C128.497 82.1278 127.943 81.9872 127.474 81.706C127.005 81.4247 126.642 81.0312 126.383 80.5256C126.127 80.0199 126 79.429 126 78.7528C126 78.0767 126.127 77.4844 126.383 76.9759C126.642 76.4673 127.005 76.0724 127.474 75.7912C127.943 75.5099 128.497 75.3693 129.136 75.3693C129.775 75.3693 130.329 75.5099 130.798 75.7912C131.267 76.0724 131.629 76.4673 131.885 76.9759C132.143 77.4844 132.272 78.0767 132.272 78.7528C132.272 79.429 132.143 80.0199 131.885 80.5256C131.629 81.0312 131.267 81.4247 130.798 81.706C130.329 81.9872 129.775 82.1278 129.136 82.1278ZM129.145 80.892C129.491 80.892 129.781 80.7969 130.014 80.6065C130.247 80.4134 130.42 80.1548 130.534 79.831C130.65 79.5071 130.708 79.1463 130.708 78.7486C130.708 78.348 130.65 77.9858 130.534 77.6619C130.42 77.3352 130.247 77.0753 130.014 76.8821C129.781 76.6889 129.491 76.5923 129.145 76.5923C128.789 76.5923 128.494 76.6889 128.258 76.8821C128.025 77.0753 127.85 77.3352 127.734 77.6619C127.62 77.9858 127.564 78.348 127.564 78.7486C127.564 79.1463 127.62 79.5071 127.734 79.831C127.85 80.1548 128.025 80.4134 128.258 80.6065C128.494 80.7969 128.789 80.892 129.145 80.892ZM139.827 75.4545V76.6477H136.064V75.4545H139.827ZM136.993 73.8864H138.536V80.0312C138.536 80.2386 138.567 80.3977 138.629 80.5085C138.695 80.6165 138.78 80.6903 138.885 80.7301C138.99 80.7699 139.107 80.7898 139.234 80.7898C139.331 80.7898 139.419 80.7827 139.499 80.7685C139.581 80.7543 139.643 80.7415 139.686 80.7301L139.946 81.9361C139.864 81.9645 139.746 81.9957 139.592 82.0298C139.442 82.0639 139.257 82.0838 139.038 82.0895C138.652 82.1009 138.304 82.0426 137.994 81.9148C137.685 81.7841 137.439 81.5824 137.257 81.3097C137.078 81.0369 136.99 80.696 136.993 80.2869V73.8864ZM142.8 78.1648V82H141.257V73.2727H142.766V76.5668H142.843C142.996 76.1974 143.233 75.9062 143.554 75.6932C143.878 75.4773 144.29 75.3693 144.79 75.3693C145.245 75.3693 145.641 75.4645 145.979 75.6548C146.317 75.8452 146.578 76.1236 146.763 76.4901C146.951 76.8565 147.044 77.304 147.044 77.8324V82H145.502V78.071C145.502 77.6307 145.388 77.2884 145.161 77.044C144.936 76.7969 144.621 76.6733 144.215 76.6733C143.942 76.6733 143.698 76.733 143.482 76.8523C143.269 76.9687 143.101 77.1378 142.979 77.3594C142.86 77.581 142.8 77.8494 142.8 78.1648ZM151.515 82.1278C150.858 82.1278 150.292 81.9915 149.814 81.7188C149.34 81.4432 148.975 81.054 148.719 80.5511C148.463 80.0455 148.336 79.4503 148.336 78.7656C148.336 78.0923 148.463 77.5014 148.719 76.9929C148.978 76.4815 149.338 76.0838 149.801 75.7997C150.265 75.5128 150.809 75.3693 151.434 75.3693C151.837 75.3693 152.218 75.4347 152.576 75.5653C152.936 75.6932 153.255 75.892 153.53 76.1619C153.809 76.4318 154.027 76.7756 154.186 77.1932C154.346 77.608 154.425 78.1023 154.425 78.6761V79.1491H149.06V78.1094H152.946C152.944 77.8139 152.88 77.5511 152.755 77.321C152.63 77.0881 152.455 76.9048 152.23 76.7713C152.009 76.6378 151.75 76.571 151.455 76.571C151.14 76.571 150.863 76.6477 150.624 76.8011C150.385 76.9517 150.199 77.1506 150.066 77.3977C149.935 77.642 149.868 77.9105 149.865 78.2031V79.1108C149.865 79.4915 149.935 79.8182 150.074 80.0909C150.213 80.3608 150.408 80.5682 150.658 80.7131C150.908 80.8551 151.201 80.9261 151.536 80.9261C151.76 80.9261 151.963 80.8949 152.145 80.8324C152.327 80.767 152.485 80.6719 152.618 80.5469C152.752 80.4219 152.853 80.267 152.921 80.0824L154.361 80.2443C154.27 80.625 154.097 80.9574 153.841 81.2415C153.588 81.5227 153.265 81.7415 152.87 81.8977C152.475 82.0511 152.023 82.1278 151.515 82.1278ZM166.573 77.6364C166.573 78.5767 166.397 79.3821 166.045 80.0526C165.695 80.7202 165.218 81.2315 164.613 81.5866C164.011 81.9418 163.327 82.1193 162.563 82.1193C161.799 82.1193 161.114 81.9418 160.509 81.5866C159.907 81.2287 159.43 80.7159 159.077 80.0483C158.728 79.3778 158.553 78.5739 158.553 77.6364C158.553 76.696 158.728 75.892 159.077 75.2244C159.43 74.554 159.907 74.0412 160.509 73.6861C161.114 73.331 161.799 73.1534 162.563 73.1534C163.327 73.1534 164.011 73.331 164.613 73.6861C165.218 74.0412 165.695 74.554 166.045 75.2244C166.397 75.892 166.573 76.696 166.573 77.6364ZM164.984 77.6364C164.984 76.9744 164.88 76.4162 164.673 75.9616C164.468 75.5043 164.184 75.1591 163.82 74.9261C163.457 74.6903 163.038 74.5724 162.563 74.5724C162.089 74.5724 161.67 74.6903 161.306 74.9261C160.942 75.1591 160.657 75.5043 160.45 75.9616C160.245 76.4162 160.143 76.9744 160.143 77.6364C160.143 78.2983 160.245 78.858 160.45 79.3153C160.657 79.7699 160.942 80.1151 161.306 80.3509C161.67 80.5838 162.089 80.7003 162.563 80.7003C163.038 80.7003 163.457 80.5838 163.82 80.3509C164.184 80.1151 164.468 79.7699 164.673 79.3153C164.88 78.858 164.984 78.2983 164.984 77.6364ZM168.068 82V73.2727H169.61V76.5369H169.674C169.754 76.3778 169.866 76.2088 170.011 76.0298C170.156 75.848 170.352 75.6932 170.599 75.5653C170.846 75.4347 171.162 75.3693 171.545 75.3693C172.051 75.3693 172.507 75.4986 172.913 75.7571C173.322 76.0128 173.646 76.392 173.885 76.8949C174.126 77.3949 174.247 78.0085 174.247 78.7358C174.247 79.4545 174.129 80.0653 173.893 80.5682C173.657 81.071 173.336 81.4545 172.93 81.7188C172.524 81.983 172.064 82.1151 171.549 82.1151C171.174 82.1151 170.863 82.0526 170.616 81.9276C170.369 81.8026 170.17 81.652 170.02 81.4759C169.872 81.2969 169.757 81.1278 169.674 80.9688H169.585V82H168.068ZM169.581 78.7273C169.581 79.1506 169.64 79.5213 169.76 79.8395C169.882 80.1577 170.056 80.4062 170.284 80.5852C170.514 80.7614 170.792 80.8494 171.119 80.8494C171.46 80.8494 171.745 80.7585 171.975 80.5767C172.206 80.392 172.379 80.1406 172.495 79.8224C172.615 79.5014 172.674 79.1364 172.674 78.7273C172.674 78.321 172.616 77.9602 172.5 77.6449C172.383 77.3295 172.21 77.0824 171.98 76.9034C171.75 76.7244 171.463 76.6349 171.119 76.6349C170.789 76.6349 170.51 76.7216 170.279 76.8949C170.049 77.0682 169.875 77.3111 169.755 77.6236C169.639 77.9361 169.581 78.304 169.581 78.7273ZM175.626 82V73.2727H177.169V76.5369H177.233C177.313 76.3778 177.425 76.2088 177.57 76.0298C177.714 75.848 177.911 75.6932 178.158 75.5653C178.405 75.4347 178.72 75.3693 179.104 75.3693C179.609 75.3693 180.065 75.4986 180.472 75.7571C180.881 76.0128 181.205 76.392 181.443 76.8949C181.685 77.3949 181.805 78.0085 181.805 78.7358C181.805 79.4545 181.688 80.0653 181.452 80.5682C181.216 81.071 180.895 81.4545 180.489 81.7188C180.082 81.983 179.622 82.1151 179.108 82.1151C178.733 82.1151 178.422 82.0526 178.175 81.9276C177.928 81.8026 177.729 81.652 177.578 81.4759C177.43 81.2969 177.315 81.1278 177.233 80.9688H177.143V82H175.626ZM177.139 78.7273C177.139 79.1506 177.199 79.5213 177.318 79.8395C177.44 80.1577 177.615 80.4062 177.842 80.5852C178.072 80.7614 178.351 80.8494 178.678 80.8494C179.018 80.8494 179.304 80.7585 179.534 80.5767C179.764 80.392 179.938 80.1406 180.054 79.8224C180.173 79.5014 180.233 79.1364 180.233 78.7273C180.233 78.321 180.175 77.9602 180.058 77.6449C179.942 77.3295 179.768 77.0824 179.538 76.9034C179.308 76.7244 179.021 76.6349 178.678 76.6349C178.348 76.6349 178.068 76.7216 177.838 76.8949C177.608 77.0682 177.433 77.3111 177.314 77.6236C177.197 77.9361 177.139 78.304 177.139 78.7273ZM183.853 84.4545C183.643 84.4545 183.448 84.4375 183.269 84.4034C183.093 84.3722 182.952 84.3352 182.847 84.2926L183.205 83.0909C183.43 83.1563 183.63 83.1875 183.806 83.1847C183.982 83.1818 184.137 83.1264 184.271 83.0185C184.407 82.9134 184.522 82.7372 184.616 82.4901L184.748 82.1364L182.374 75.4545H184.011L185.519 80.3977H185.587L187.1 75.4545H188.741L186.12 82.7926C185.998 83.1392 185.836 83.4361 185.634 83.6832C185.433 83.9332 185.185 84.1236 184.893 84.2543C184.603 84.3878 184.256 84.4545 183.853 84.4545ZM194.69 82L192.227 73.2727H193.927L195.499 79.6861H195.58L197.259 73.2727H198.806L200.489 79.6903H200.566L202.138 73.2727H203.839L201.376 82H199.816L198.069 75.8764H198.001L196.249 82H194.69ZM204.867 82V75.4545H206.409V82H204.867ZM205.642 74.5256C205.398 74.5256 205.188 74.4446 205.012 74.2827C204.836 74.1179 204.748 73.9205 204.748 73.6903C204.748 73.4574 204.836 73.2599 205.012 73.098C205.188 72.9332 205.398 72.8509 205.642 72.8509C205.89 72.8509 206.1 72.9332 206.273 73.098C206.449 73.2599 206.537 73.4574 206.537 73.6903C206.537 73.9205 206.449 74.1179 206.273 74.2827C206.1 74.4446 205.89 74.5256 205.642 74.5256ZM209.402 79.946L209.398 78.0838H209.645L211.997 75.4545H213.8L210.906 78.6761H210.587L209.402 79.946ZM207.996 82V73.2727H209.538V82H207.996ZM212.104 82L209.973 79.0213L211.013 77.9347L213.949 82H212.104ZM214.828 82V75.4545H216.37V82H214.828ZM215.603 74.5256C215.359 74.5256 215.149 74.4446 214.973 74.2827C214.797 74.1179 214.708 73.9205 214.708 73.6903C214.708 73.4574 214.797 73.2599 214.973 73.098C215.149 72.9332 215.359 72.8509 215.603 72.8509C215.85 72.8509 216.061 72.9332 216.234 73.098C216.41 73.2599 216.498 73.4574 216.498 73.6903C216.498 73.9205 216.41 74.1179 216.234 74.2827C216.061 74.4446 215.85 74.5256 215.603 74.5256Z" fill="white"/>
</g>
<defs>
<clipPath id="clip0_104_245">
<rect width="508" height="114" fill="white"/>
</clipPath>
</defs>
</svg>
