<svg width="421" height="114" viewBox="0 0 421 114" fill="none" xmlns="http://www.w3.org/2000/svg">
<g clip-path="url(#clip0_106_321)">
<rect width="421" height="114" rx="30" fill="#14141B"/>
<mask id="mask0_106_321" style="mask-type:alpha" maskUnits="userSpaceOnUse" x="47" y="0" width="374" height="114">
<rect x="47" width="374" height="114" rx="30" fill="#14141B"/>
</mask>
<g mask="url(#mask0_106_321)">
<path opacity="0.1" d="M534.802 -151.452L389.662 -186L234.001 330.081L379.14 364.629L534.802 -151.452Z" fill="#009FFF"/>
<path opacity="0.1" d="M404.409 -182.49L389.661 -186L234 330.081L248.747 333.591L404.409 -182.49Z" fill="#009FFF"/>
</g>
<rect x="26" y="17" width="80" height="80" rx="15" fill="#2C2C3A"/>
<path d="M72 81V75H81C81.85 75 82.5625 74.7125 83.1375 74.1375C83.7125 73.5625 84 72.85 84 72V66C84 64.1 84.55 62.375 85.65 60.825C86.75 59.275 88.2 58.175 90 57.525V56.475C88.2 55.825 86.75 54.725 85.65 53.175C84.55 51.625 84 49.9 84 48V42C84 41.15 83.7125 40.4375 83.1375 39.8625C82.5625 39.2875 81.85 39 81 39H72V33H81C83.5 33 85.625 33.875 87.375 35.625C89.125 37.375 90 39.5 90 42V48C90 48.85 90.2875 49.5625 90.8625 50.1375C91.4375 50.7125 92.15 51 93 51H96V63H93C92.15 63 91.4375 63.2875 90.8625 63.8625C90.2875 64.4375 90 65.15 90 66V72C90 74.5 89.125 76.625 87.375 78.375C85.625 80.125 83.5 81 81 81H72ZM51 81C48.5 81 46.375 80.125 44.625 78.375C42.875 76.625 42 74.5 42 72V66C42 65.15 41.7125 64.4375 41.1375 63.8625C40.5625 63.2875 39.85 63 39 63H36V51H39C39.85 51 40.5625 50.7125 41.1375 50.1375C41.7125 49.5625 42 48.85 42 48V42C42 39.5 42.875 37.375 44.625 35.625C46.375 33.875 48.5 33 51 33H60V39H51C50.15 39 49.4375 39.2875 48.8625 39.8625C48.2875 40.4375 48 41.15 48 42V48C48 49.9 47.45 51.625 46.35 53.175C45.25 54.725 43.8 55.825 42 56.475V57.525C43.8 58.175 45.25 59.275 46.35 60.825C47.45 62.375 48 64.1 48 66V72C48 72.85 48.2875 73.5625 48.8625 74.1375C49.4375 74.7125 50.15 75 51 75H60V81H51Z" fill="white"/>
<path d="M367.454 72.5714L364.543 69.6606L384.503 49.7011H366.622V45.5428H391.572V70.4923H387.413V52.6119L367.454 72.5714Z" fill="#E3E3E3"/>
<path d="M123.655 65V34.4545H135.706C138.023 34.4545 139.996 34.897 141.627 35.782C143.258 36.657 144.501 37.875 145.356 39.4361C146.221 40.9872 146.653 42.777 146.653 44.8054C146.653 46.8338 146.216 48.6236 145.341 50.1747C144.466 51.7259 143.198 52.9339 141.538 53.799C139.887 54.6641 137.888 55.0966 135.542 55.0966H127.861V49.9212H134.498C135.741 49.9212 136.765 49.7074 137.57 49.2798C138.386 48.8423 138.992 48.2408 139.39 47.4751C139.798 46.6996 140.001 45.8097 140.001 44.8054C140.001 43.7912 139.798 42.9062 139.39 42.1506C138.992 41.3849 138.386 40.7933 137.57 40.3757C136.755 39.9482 135.721 39.7344 134.468 39.7344H130.113V65H123.655ZM150.729 65V42.0909H156.889V46.0881H157.127C157.545 44.6662 158.246 43.5923 159.23 42.8665C160.215 42.1307 161.348 41.7628 162.631 41.7628C162.949 41.7628 163.292 41.7827 163.66 41.8224C164.028 41.8622 164.351 41.9169 164.629 41.9865V47.6243C164.331 47.5348 163.919 47.4553 163.392 47.3857C162.865 47.3161 162.382 47.2812 161.945 47.2812C161.01 47.2812 160.175 47.4851 159.439 47.8928C158.713 48.2905 158.137 48.8473 157.709 49.5632C157.291 50.2791 157.083 51.1044 157.083 52.0391V65H150.729ZM177.199 65.4474C174.882 65.4474 172.879 64.9553 171.188 63.9709C169.508 62.9766 168.21 61.5945 167.295 59.8246C166.381 58.0447 165.923 55.9815 165.923 53.6349C165.923 51.2685 166.381 49.2003 167.295 47.4304C168.21 45.6506 169.508 44.2685 171.188 43.2841C172.879 42.2898 174.882 41.7926 177.199 41.7926C179.516 41.7926 181.514 42.2898 183.195 43.2841C184.885 44.2685 186.188 45.6506 187.102 47.4304C188.017 49.2003 188.474 51.2685 188.474 53.6349C188.474 55.9815 188.017 58.0447 187.102 59.8246C186.188 61.5945 184.885 62.9766 183.195 63.9709C181.514 64.9553 179.516 65.4474 177.199 65.4474ZM177.229 60.5256C178.283 60.5256 179.163 60.2273 179.869 59.6307C180.575 59.0241 181.107 58.1989 181.464 57.1548C181.832 56.1108 182.016 54.9226 182.016 53.5902C182.016 52.2578 181.832 51.0696 181.464 50.0256C181.107 48.9815 180.575 48.1562 179.869 47.5497C179.163 46.9432 178.283 46.6399 177.229 46.6399C176.165 46.6399 175.27 46.9432 174.544 47.5497C173.828 48.1562 173.286 48.9815 172.918 50.0256C172.56 51.0696 172.381 52.2578 172.381 53.5902C172.381 54.9226 172.56 56.1108 172.918 57.1548C173.286 58.1989 173.828 59.0241 174.544 59.6307C175.27 60.2273 176.165 60.5256 177.229 60.5256ZM192.606 42.0909H198.96V66.1335C198.96 67.9034 198.612 69.3352 197.915 70.429C197.219 71.5227 196.22 72.3232 194.918 72.8303C193.625 73.3374 192.079 73.5909 190.279 73.5909C190.06 73.5909 189.852 73.5859 189.653 73.576C189.444 73.576 189.225 73.571 188.996 73.5611V68.5945C189.165 68.6044 189.315 68.6094 189.444 68.6094C189.563 68.6193 189.692 68.6243 189.832 68.6243C190.856 68.6243 191.572 68.4055 191.979 67.968C192.397 67.5405 192.606 66.8942 192.606 66.0291V42.0909ZM195.768 39.1378C194.833 39.1378 194.028 38.8246 193.352 38.1982C192.675 37.5618 192.337 36.8011 192.337 35.9162C192.337 35.0412 192.675 34.2905 193.352 33.6641C194.028 33.0277 194.833 32.7095 195.768 32.7095C196.722 32.7095 197.533 33.0277 198.199 33.6641C198.875 34.2905 199.213 35.0412 199.213 35.9162C199.213 36.8011 198.875 37.5618 198.199 38.1982C197.533 38.8246 196.722 39.1378 195.768 39.1378ZM214.49 65.4474C212.133 65.4474 210.105 64.9702 208.404 64.0156C206.714 63.0511 205.411 61.6889 204.497 59.929C203.582 58.1591 203.124 56.0661 203.124 53.6499C203.124 51.2933 203.582 49.2251 204.497 47.4453C205.411 45.6655 206.699 44.2784 208.36 43.2841C210.03 42.2898 211.989 41.7926 214.236 41.7926C215.747 41.7926 217.154 42.0362 218.457 42.5234C219.769 43.0007 220.913 43.7216 221.887 44.6861C222.872 45.6506 223.637 46.8636 224.184 48.3253C224.731 49.777 225.004 51.4773 225.004 53.4261V55.1712H205.66V51.2337H219.024C219.024 50.3189 218.825 49.5085 218.427 48.8026C218.029 48.0966 217.477 47.5447 216.771 47.147C216.075 46.7393 215.265 46.5355 214.34 46.5355C213.376 46.5355 212.521 46.7592 211.775 47.2067C211.039 47.6442 210.463 48.2358 210.045 48.9815C209.627 49.7173 209.414 50.5376 209.404 51.4425V55.1861C209.404 56.3196 209.612 57.299 210.03 58.1243C210.458 58.9496 211.059 59.5859 211.835 60.0334C212.61 60.4808 213.53 60.7045 214.594 60.7045C215.3 60.7045 215.946 60.6051 216.533 60.4062C217.119 60.2074 217.622 59.9091 218.039 59.5114C218.457 59.1136 218.775 58.6264 218.994 58.0497L224.87 58.4375C224.572 59.8494 223.96 61.0824 223.036 62.1364C222.121 63.1804 220.938 63.9957 219.486 64.5824C218.044 65.1591 216.379 65.4474 214.49 65.4474ZM239.502 65.4474C237.155 65.4474 235.137 64.9503 233.446 63.956C231.766 62.9517 230.473 61.5597 229.568 59.7798C228.673 58 228.226 55.9517 228.226 53.6349C228.226 51.2884 228.678 49.2301 229.583 47.4602C230.498 45.6804 231.796 44.2933 233.476 43.299C235.156 42.2947 237.155 41.7926 239.472 41.7926C241.47 41.7926 243.22 42.1555 244.722 42.8814C246.223 43.6072 247.411 44.6264 248.286 45.9389C249.161 47.2514 249.644 48.7926 249.733 50.5625H243.737C243.568 49.419 243.121 48.4993 242.395 47.8033C241.679 47.0973 240.74 46.7443 239.576 46.7443C238.592 46.7443 237.732 47.0128 236.996 47.5497C236.27 48.0767 235.703 48.8473 235.296 49.8615C234.888 50.8757 234.684 52.1037 234.684 53.5455C234.684 55.0071 234.883 56.25 235.281 57.2741C235.688 58.2983 236.26 59.0788 236.996 59.6158C237.732 60.1527 238.592 60.4212 239.576 60.4212C240.302 60.4212 240.953 60.272 241.53 59.9737C242.117 59.6754 242.599 59.2429 242.977 58.6761C243.365 58.0994 243.618 57.4084 243.737 56.603H249.733C249.634 58.353 249.156 59.8942 248.301 61.2266C247.456 62.549 246.288 63.5831 244.796 64.3288C243.305 65.0746 241.54 65.4474 239.502 65.4474ZM265.987 42.0909V46.8636H252.19V42.0909H265.987ZM255.322 36.6023H261.676V57.9602C261.676 58.5469 261.766 59.0043 261.945 59.3324C262.124 59.6506 262.372 59.8743 262.69 60.0036C263.018 60.1328 263.396 60.1974 263.824 60.1974C264.122 60.1974 264.42 60.1726 264.719 60.1229C265.017 60.0632 265.246 60.0185 265.405 59.9886L266.404 64.7166C266.086 64.8161 265.638 64.9304 265.062 65.0597C264.485 65.1989 263.784 65.2834 262.959 65.3132C261.428 65.3729 260.085 65.169 258.932 64.7017C257.788 64.2344 256.898 63.5085 256.262 62.5241C255.626 61.5398 255.313 60.2969 255.322 58.7955V36.6023ZM288.899 48.6236L283.083 48.9815C282.983 48.4844 282.769 48.0369 282.441 47.6392C282.113 47.2315 281.681 46.9084 281.144 46.6697C280.617 46.4212 279.985 46.2969 279.249 46.2969C278.265 46.2969 277.435 46.5057 276.759 46.9233C276.083 47.331 275.744 47.8778 275.744 48.5639C275.744 49.1108 275.963 49.5732 276.401 49.951C276.838 50.3288 277.589 50.6321 278.653 50.8608L282.799 51.696C285.026 52.1534 286.687 52.8892 287.781 53.9034C288.874 54.9176 289.421 56.25 289.421 57.9006C289.421 59.402 288.979 60.7195 288.094 61.853C287.219 62.9865 286.016 63.8714 284.485 64.5078C282.963 65.1342 281.208 65.4474 279.22 65.4474C276.187 65.4474 273.771 64.8161 271.971 63.5533C270.181 62.2805 269.132 60.5504 268.824 58.3629L275.073 58.0348C275.262 58.9595 275.72 59.6655 276.445 60.1527C277.171 60.63 278.101 60.8686 279.235 60.8686C280.348 60.8686 281.243 60.6548 281.919 60.2273C282.605 59.7898 282.953 59.228 282.963 58.5419C282.953 57.9652 282.71 57.4929 282.232 57.125C281.755 56.7472 281.019 56.4588 280.025 56.2599L276.058 55.4695C273.82 55.022 272.155 54.2464 271.061 53.1428C269.977 52.0391 269.436 50.6321 269.436 48.9219C269.436 47.4503 269.833 46.1825 270.629 45.1186C271.434 44.0547 272.563 43.2344 274.014 42.6577C275.476 42.081 277.186 41.7926 279.145 41.7926C282.039 41.7926 284.316 42.4041 285.976 43.6271C287.646 44.8501 288.621 46.5156 288.899 48.6236Z" fill="white"/>
<path opacity="0.7" d="M125.108 75.4545V76.6477H121.239V75.4545H125.108ZM122.206 82V74.8366C122.206 74.3963 122.297 74.0298 122.479 73.7372C122.663 73.4446 122.911 73.2259 123.22 73.081C123.53 72.9361 123.874 72.8636 124.251 72.8636C124.518 72.8636 124.756 72.8849 124.963 72.9276C125.17 72.9702 125.324 73.0085 125.423 73.0426L125.116 74.2358C125.051 74.2159 124.969 74.196 124.869 74.1761C124.77 74.1534 124.659 74.142 124.537 74.142C124.25 74.142 124.047 74.2116 123.928 74.3509C123.811 74.4872 123.753 74.6832 123.753 74.9389V82H122.206ZM126.316 82V75.4545H127.812V76.5455H127.88C127.999 76.1676 128.204 75.8764 128.494 75.6719C128.786 75.4645 129.12 75.3608 129.495 75.3608C129.58 75.3608 129.675 75.3651 129.781 75.3736C129.888 75.3793 129.978 75.3892 130.049 75.4034V76.8224C129.984 76.7997 129.88 76.7798 129.738 76.7628C129.599 76.7429 129.464 76.733 129.333 76.733C129.052 76.733 128.799 76.794 128.575 76.9162C128.353 77.0355 128.178 77.2017 128.05 77.4148C127.923 77.6278 127.859 77.8736 127.859 78.152V82H126.316ZM133.659 82.1278C133.02 82.1278 132.466 81.9872 131.998 81.706C131.529 81.4247 131.165 81.0312 130.907 80.5256C130.651 80.0199 130.523 79.429 130.523 78.7528C130.523 78.0767 130.651 77.4844 130.907 76.9759C131.165 76.4673 131.529 76.0724 131.998 75.7912C132.466 75.5099 133.02 75.3693 133.659 75.3693C134.299 75.3693 134.853 75.5099 135.321 75.7912C135.79 76.0724 136.152 76.4673 136.408 76.9759C136.667 77.4844 136.796 78.0767 136.796 78.7528C136.796 79.429 136.667 80.0199 136.408 80.5256C136.152 81.0312 135.79 81.4247 135.321 81.706C134.853 81.9872 134.299 82.1278 133.659 82.1278ZM133.668 80.892C134.015 80.892 134.304 80.7969 134.537 80.6065C134.77 80.4134 134.944 80.1548 135.057 79.831C135.174 79.5071 135.232 79.1463 135.232 78.7486C135.232 78.348 135.174 77.9858 135.057 77.6619C134.944 77.3352 134.77 77.0753 134.537 76.8821C134.304 76.6889 134.015 76.5923 133.668 76.5923C133.313 76.5923 133.017 76.6889 132.782 76.8821C132.549 77.0753 132.374 77.3352 132.257 77.6619C132.144 77.9858 132.087 78.348 132.087 78.7486C132.087 79.1463 132.144 79.5071 132.257 79.831C132.374 80.1548 132.549 80.4134 132.782 80.6065C133.017 80.7969 133.313 80.892 133.668 80.892ZM138.105 82V75.4545H139.58V76.5668H139.656C139.793 76.1918 140.018 75.8991 140.334 75.6889C140.649 75.4759 141.026 75.3693 141.463 75.3693C141.906 75.3693 142.28 75.4773 142.584 75.6932C142.891 75.9062 143.107 76.1974 143.232 76.5668H143.3C143.445 76.2031 143.689 75.9134 144.033 75.6974C144.379 75.4787 144.79 75.3693 145.264 75.3693C145.866 75.3693 146.358 75.5597 146.739 75.9403C147.119 76.321 147.31 76.8764 147.31 77.6065V82H145.763V77.8452C145.763 77.4389 145.655 77.142 145.439 76.9545C145.223 76.7642 144.959 76.669 144.646 76.669C144.274 76.669 143.983 76.7855 143.773 77.0185C143.565 77.2486 143.462 77.5483 143.462 77.9176V82H141.949V77.7812C141.949 77.4432 141.847 77.1733 141.642 76.9716C141.44 76.7699 141.176 76.669 140.849 76.669C140.628 76.669 140.426 76.7259 140.244 76.8395C140.063 76.9503 139.918 77.108 139.81 77.3125C139.702 77.5142 139.648 77.75 139.648 78.0199V82H138.105ZM155.12 75.4545V76.6477H151.357V75.4545H155.12ZM152.286 73.8864H153.828V80.0312C153.828 80.2386 153.86 80.3977 153.922 80.5085C153.988 80.6165 154.073 80.6903 154.178 80.7301C154.283 80.7699 154.4 80.7898 154.527 80.7898C154.624 80.7898 154.712 80.7827 154.792 80.7685C154.874 80.7543 154.936 80.7415 154.979 80.7301L155.239 81.9361C155.157 81.9645 155.039 81.9957 154.885 82.0298C154.735 82.0639 154.55 82.0838 154.331 82.0895C153.945 82.1009 153.597 82.0426 153.287 81.9148C152.978 81.7841 152.732 81.5824 152.55 81.3097C152.371 81.0369 152.283 80.696 152.286 80.2869V73.8864ZM158.093 78.1648V82H156.55V73.2727H158.059V76.5668H158.136C158.289 76.1974 158.526 75.9062 158.847 75.6932C159.171 75.4773 159.583 75.3693 160.083 75.3693C160.538 75.3693 160.934 75.4645 161.272 75.6548C161.61 75.8452 161.871 76.1236 162.056 76.4901C162.244 76.8565 162.337 77.304 162.337 77.8324V82H160.795V78.071C160.795 77.6307 160.681 77.2884 160.454 77.044C160.229 76.7969 159.914 76.6733 159.508 76.6733C159.235 76.6733 158.991 76.733 158.775 76.8523C158.562 76.9687 158.394 77.1378 158.272 77.3594C158.153 77.581 158.093 77.8494 158.093 78.1648ZM166.808 82.1278C166.151 82.1278 165.585 81.9915 165.107 81.7188C164.633 81.4432 164.268 81.054 164.012 80.5511C163.756 80.0455 163.629 79.4503 163.629 78.7656C163.629 78.0923 163.756 77.5014 164.012 76.9929C164.271 76.4815 164.631 76.0838 165.094 75.7997C165.558 75.5128 166.102 75.3693 166.727 75.3693C167.13 75.3693 167.511 75.4347 167.869 75.5653C168.229 75.6932 168.548 75.892 168.823 76.1619C169.102 76.4318 169.32 76.7756 169.479 77.1932C169.638 77.608 169.718 78.1023 169.718 78.6761V79.1491H164.353V78.1094H168.239C168.237 77.8139 168.173 77.5511 168.048 77.321C167.923 77.0881 167.748 76.9048 167.523 76.7713C167.302 76.6378 167.043 76.571 166.748 76.571C166.433 76.571 166.156 76.6477 165.917 76.8011C165.678 76.9517 165.492 77.1506 165.359 77.3977C165.228 77.642 165.161 77.9105 165.158 78.2031V79.1108C165.158 79.4915 165.228 79.8182 165.367 80.0909C165.506 80.3608 165.701 80.5682 165.951 80.7131C166.201 80.8551 166.494 80.9261 166.829 80.9261C167.053 80.9261 167.256 80.8949 167.438 80.8324C167.62 80.767 167.778 80.6719 167.911 80.5469C168.045 80.4219 168.146 80.267 168.214 80.0824L169.654 80.2443C169.563 80.625 169.39 80.9574 169.134 81.2415C168.881 81.5227 168.558 81.7415 168.163 81.8977C167.768 82.0511 167.316 82.1278 166.808 82.1278ZM181.866 77.6364C181.866 78.5767 181.69 79.3821 181.338 80.0526C180.988 80.7202 180.511 81.2315 179.906 81.5866C179.304 81.9418 178.62 82.1193 177.856 82.1193C177.092 82.1193 176.407 81.9418 175.802 81.5866C175.2 81.2287 174.723 80.7159 174.37 80.0483C174.021 79.3778 173.846 78.5739 173.846 77.6364C173.846 76.696 174.021 75.892 174.37 75.2244C174.723 74.554 175.2 74.0412 175.802 73.6861C176.407 73.331 177.092 73.1534 177.856 73.1534C178.62 73.1534 179.304 73.331 179.906 73.6861C180.511 74.0412 180.988 74.554 181.338 75.2244C181.69 75.892 181.866 76.696 181.866 77.6364ZM180.277 77.6364C180.277 76.9744 180.173 76.4162 179.966 75.9616C179.761 75.5043 179.477 75.1591 179.113 74.9261C178.75 74.6903 178.331 74.5724 177.856 74.5724C177.382 74.5724 176.963 74.6903 176.599 74.9261C176.235 75.1591 175.95 75.5043 175.743 75.9616C175.538 76.4162 175.436 76.9744 175.436 77.6364C175.436 78.2983 175.538 78.858 175.743 79.3153C175.95 79.7699 176.235 80.1151 176.599 80.3509C176.963 80.5838 177.382 80.7003 177.856 80.7003C178.331 80.7003 178.75 80.5838 179.113 80.3509C179.477 80.1151 179.761 79.7699 179.966 79.3153C180.173 78.858 180.277 78.2983 180.277 77.6364ZM183.361 82V73.2727H184.903V76.5369H184.967C185.047 76.3778 185.159 76.2088 185.304 76.0298C185.449 75.848 185.645 75.6932 185.892 75.5653C186.139 75.4347 186.455 75.3693 186.838 75.3693C187.344 75.3693 187.8 75.4986 188.206 75.7571C188.615 76.0128 188.939 76.392 189.178 76.8949C189.419 77.3949 189.54 78.0085 189.54 78.7358C189.54 79.4545 189.422 80.0653 189.186 80.5682C188.95 81.071 188.629 81.4545 188.223 81.7188C187.817 81.983 187.357 82.1151 186.842 82.1151C186.467 82.1151 186.156 82.0526 185.909 81.9276C185.662 81.8026 185.463 81.652 185.312 81.4759C185.165 81.2969 185.05 81.1278 184.967 80.9688H184.878V82H183.361ZM184.874 78.7273C184.874 79.1506 184.933 79.5213 185.053 79.8395C185.175 80.1577 185.349 80.4062 185.577 80.5852C185.807 80.7614 186.085 80.8494 186.412 80.8494C186.753 80.8494 187.038 80.7585 187.268 80.5767C187.499 80.392 187.672 80.1406 187.788 79.8224C187.908 79.5014 187.967 79.1364 187.967 78.7273C187.967 78.321 187.909 77.9602 187.793 77.6449C187.676 77.3295 187.503 77.0824 187.273 76.9034C187.043 76.7244 186.756 76.6349 186.412 76.6349C186.082 76.6349 185.803 76.7216 185.572 76.8949C185.342 77.0682 185.168 77.3111 185.048 77.6236C184.932 77.9361 184.874 78.304 184.874 78.7273ZM190.919 82V73.2727H192.462V76.5369H192.526C192.605 76.3778 192.718 76.2088 192.863 76.0298C193.007 75.848 193.203 75.6932 193.451 75.5653C193.698 75.4347 194.013 75.3693 194.397 75.3693C194.902 75.3693 195.358 75.4986 195.765 75.7571C196.174 76.0128 196.498 76.392 196.736 76.8949C196.978 77.3949 197.098 78.0085 197.098 78.7358C197.098 79.4545 196.98 80.0653 196.745 80.5682C196.509 81.071 196.188 81.4545 195.782 81.7188C195.375 81.983 194.915 82.1151 194.401 82.1151C194.026 82.1151 193.715 82.0526 193.468 81.9276C193.221 81.8026 193.022 81.652 192.871 81.4759C192.723 81.2969 192.608 81.1278 192.526 80.9688H192.436V82H190.919ZM192.432 78.7273C192.432 79.1506 192.492 79.5213 192.611 79.8395C192.733 80.1577 192.908 80.4062 193.135 80.5852C193.365 80.7614 193.644 80.8494 193.971 80.8494C194.311 80.8494 194.597 80.7585 194.827 80.5767C195.057 80.392 195.23 80.1406 195.347 79.8224C195.466 79.5014 195.526 79.1364 195.526 78.7273C195.526 78.321 195.468 77.9602 195.351 77.6449C195.235 77.3295 195.061 77.0824 194.831 76.9034C194.601 76.7244 194.314 76.6349 193.971 76.6349C193.641 76.6349 193.361 76.7216 193.131 76.8949C192.901 77.0682 192.726 77.3111 192.607 77.6236C192.49 77.9361 192.432 78.304 192.432 78.7273ZM199.146 84.4545C198.936 84.4545 198.741 84.4375 198.562 84.4034C198.386 84.3722 198.245 84.3352 198.14 84.2926L198.498 83.0909C198.723 83.1563 198.923 83.1875 199.099 83.1847C199.275 83.1818 199.43 83.1264 199.564 83.0185C199.7 82.9134 199.815 82.7372 199.909 82.4901L200.041 82.1364L197.667 75.4545H199.304L200.812 80.3977H200.88L202.393 75.4545H204.034L201.413 82.7926C201.291 83.1392 201.129 83.4361 200.927 83.6832C200.725 83.9332 200.478 84.1236 200.186 84.2543C199.896 84.3878 199.549 84.4545 199.146 84.4545ZM209.983 82L207.52 73.2727H209.22L210.792 79.6861H210.873L212.552 73.2727H214.099L215.782 79.6903H215.859L217.431 73.2727H219.132L216.669 82H215.109L213.362 75.8764H213.294L211.542 82H209.983ZM220.16 82V75.4545H221.702V82H220.16ZM220.935 74.5256C220.691 74.5256 220.481 74.4446 220.305 74.2827C220.129 74.1179 220.04 73.9205 220.04 73.6903C220.04 73.4574 220.129 73.2599 220.305 73.098C220.481 72.9332 220.691 72.8509 220.935 72.8509C221.183 72.8509 221.393 72.9332 221.566 73.098C221.742 73.2599 221.83 73.4574 221.83 73.6903C221.83 73.9205 221.742 74.1179 221.566 74.2827C221.393 74.4446 221.183 74.5256 220.935 74.5256ZM224.695 79.946L224.691 78.0838H224.938L227.29 75.4545H229.093L226.199 78.6761H225.88L224.695 79.946ZM223.289 82V73.2727H224.831V82H223.289ZM227.397 82L225.266 79.0213L226.306 77.9347L229.242 82H227.397ZM230.121 82V75.4545H231.663V82H230.121ZM230.896 74.5256C230.652 74.5256 230.442 74.4446 230.266 74.2827C230.089 74.1179 230.001 73.9205 230.001 73.6903C230.001 73.4574 230.089 73.2599 230.266 73.098C230.442 72.9332 230.652 72.8509 230.896 72.8509C231.143 72.8509 231.354 72.9332 231.527 73.098C231.703 73.2599 231.791 73.4574 231.791 73.6903C231.791 73.9205 231.703 74.1179 231.527 74.2827C231.354 74.4446 231.143 74.5256 230.896 74.5256Z" fill="white"/>
</g>
<defs>
<clipPath id="clip0_106_321">
<rect width="421" height="114" fill="white"/>
</clipPath>
</defs>
</svg>
